<svg width="120" height="85" viewBox="0 0 120 85" fill="none" xmlns="http://www.w3.org/2000/svg">
<path d="M0 77.5057C0 76.3714 0.201733 75.3408 0.607132 74.4196C1.01253 73.4984 1.56535 72.7096 2.26752 72.0552C2.96969 71.4007 3.79601 70.896 4.7484 70.5428C5.7008 70.1897 6.71527 70.0112 7.79569 70.0112C8.8761 70.0112 9.94876 70.1878 10.9341 70.5428C11.9195 70.896 12.7439 71.3738 13.4053 71.9746L10.4492 75.5001C10.1796 75.1527 9.84207 74.8898 9.43668 74.7094C9.03128 74.529 8.57933 74.4388 8.08082 74.4388C7.67542 74.4388 7.29718 74.5098 6.94609 74.6499C6.59501 74.79 6.28853 74.9934 6.02473 75.2602C5.76093 75.527 5.55532 75.8513 5.40791 76.2313C5.25855 76.6113 5.18484 77.0354 5.18484 77.5037C5.18484 77.972 5.26243 78.3885 5.4176 78.755C5.57278 79.1235 5.78227 79.4402 6.04607 79.707C6.30987 79.9737 6.61634 80.1772 6.96743 80.3173C7.31851 80.4574 7.689 80.5284 8.08082 80.5284C8.63364 80.5284 9.1108 80.4151 9.50844 80.1887C9.90608 79.9622 10.2203 79.6954 10.4492 79.3865L13.4053 82.8928C12.7575 83.5338 11.9602 84.0443 11.0156 84.4262C10.071 84.8062 8.99636 84.9981 7.79569 84.9981C6.71527 84.9981 5.7008 84.8178 4.7484 84.4569C3.79601 84.0961 2.96969 83.5856 2.26752 82.9235C1.56535 82.2633 1.01253 81.4745 0.607132 80.5591C0.201733 79.6436 0 78.6265 0 77.5037V77.5057Z" fill="url(#paint0_linear_121_92)"/>
<path d="M12.3325 77.4251C12.3325 76.2908 12.5343 75.2641 12.9396 74.3505C13.345 73.4351 13.9017 72.6578 14.6097 72.0168C15.3177 71.3758 16.1596 70.8826 17.1314 70.5333C18.1031 70.1859 19.1564 70.0132 20.2911 70.0132C21.4259 70.0132 22.4791 70.1878 23.4509 70.5333C24.4227 70.8807 25.2665 71.3739 25.9822 72.0168C26.698 72.6578 27.2586 73.437 27.664 74.3505C28.0694 75.266 28.2711 76.2908 28.2711 77.4251C28.2711 78.5593 28.0694 79.5957 27.664 80.5303C27.2586 81.465 26.698 82.2634 25.9822 82.9255C25.2665 83.5876 24.4227 84.0981 23.4509 84.4589C22.4791 84.8197 21.4259 85.0001 20.2911 85.0001C19.1564 85.0001 18.1051 84.8197 17.1314 84.4589C16.1596 84.0981 15.3197 83.5876 14.6097 82.9255C13.9017 82.2653 13.345 81.4669 12.9396 80.5303C12.5343 79.5957 12.3325 78.5593 12.3325 77.4251ZM17.4572 77.4251C17.4572 77.8934 17.529 78.3194 17.6706 78.7071C17.8122 79.0948 18.0081 79.4287 18.2583 79.7089C18.5085 79.9891 18.8073 80.206 19.1603 80.3595C19.5114 80.5131 19.8896 80.5898 20.295 80.5898C20.7004 80.5898 21.0748 80.5131 21.4181 80.3595C21.7614 80.206 22.0621 79.9891 22.3201 79.7089C22.5761 79.4287 22.7759 79.0948 22.9175 78.7071C23.0591 78.3194 23.1309 77.8934 23.1309 77.4251C23.1309 76.9568 23.061 76.5538 22.9175 76.1738C22.7759 75.7938 22.5761 75.4733 22.3201 75.2123C22.064 74.9513 21.7634 74.7478 21.4181 74.602C21.0748 74.4542 20.6985 74.3813 20.295 74.3813C19.8916 74.3813 19.5114 74.4542 19.1603 74.602C18.8092 74.7497 18.5085 74.9532 18.2583 75.2123C18.0081 75.4733 17.8122 75.7938 17.6706 76.1738C17.529 76.5538 17.4572 76.9722 17.4572 77.4251Z" fill="url(#paint1_linear_121_92)"/>
<path d="M28.7754 70.4121H33.5742L37.6651 77.6052H37.7465L37.5448 70.4121H42.1206V84.5968H37.1995L33.2309 77.824H33.1494L33.3512 84.5968H28.7754V70.4121Z" fill="url(#paint2_linear_121_92)"/>
<path d="M47.9918 75.8818H52.3658V79.7893H48.0112V84.5988H43.2725V70.4141H52.9516V74.4021H47.9898V75.8857L47.9918 75.8818Z" fill="url(#paint3_linear_121_92)"/>
<path d="M53.52 70.4121H58.379V84.5968H53.52V70.4121Z" fill="url(#paint4_linear_121_92)"/>
<path d="M59.5356 84.5968V70.4121H64.8815C66.0162 70.4121 67.0986 70.5215 68.1324 70.7422C69.1643 70.9629 70.076 71.3429 70.8655 71.8841C71.6549 72.4253 72.2853 73.1431 72.7586 74.0374C73.2319 74.9318 73.4666 76.0603 73.4666 77.4229C73.4666 78.6646 73.2397 79.7413 72.7877 80.649C72.3358 81.5568 71.7306 82.3015 70.976 82.883C70.2195 83.4645 69.3486 83.8944 68.3632 84.1746C67.3779 84.4548 66.3518 84.5949 65.2849 84.5949H59.5337L59.5356 84.5968ZM64.1735 74.4597V80.4898H65.0638C66.1985 80.4898 67.0694 80.246 67.6766 79.7605C68.2837 79.2749 68.5882 78.4784 68.5882 77.3749C68.5882 76.4556 68.2837 75.7417 67.6766 75.2273C67.0694 74.7149 66.2587 74.4578 65.2461 74.4578H64.1735V74.4597Z" fill="url(#paint5_linear_121_92)"/>
<path d="M73.9722 70.4121H83.8336V74.3791H78.5072V75.6016H83.5097V79.3075H78.5072V80.6299H84.177V84.5968H73.9702V70.4121H73.9722Z" fill="url(#paint6_linear_121_92)"/>
<path d="M84.666 70.4121H89.4648L93.5557 77.6052H93.6372L93.4354 70.4121H98.0112V84.5968H93.0902L89.1215 77.824H89.0401L89.2418 84.5968H84.666V70.4121Z" fill="url(#paint7_linear_121_92)"/>
<path d="M106.311 84.5968H101.491V74.4386H97.9668V70.4121H109.834V74.4386H106.309V84.5968H106.311Z" fill="url(#paint8_linear_121_92)"/>
<path d="M109.795 70.4121H119.657V74.3791H114.33V75.6016H119.333V79.3075H114.33V80.6299H120V84.5968H109.793V70.4121H109.795Z" fill="url(#paint9_linear_121_92)"/>
<path d="M106.022 42.9468C105.365 44.9024 103.592 48.0039 100.989 51.3586C99.2082 53.6539 96.96 56.2468 93.6198 58.26C88.6814 61.2347 84.2918 62.8411 80.5928 63.7316C75.7668 64.8927 65.8646 65.622 63.6223 65.8254C55.6753 66.5451 46.9796 67.1477 43.6821 67.6179C43.011 67.7139 42.6347 66.9174 43.1603 66.5125C45.7091 64.5511 49.9784 60.9411 51.7202 57.5633C51.7455 57.5153 52.275 56.5788 52.5252 56.1393C52.5873 56.0376 52.6629 55.9263 52.5621 55.8284C50.4459 53.8094 48.6167 51.5889 47.1057 49.2264C51.4933 49.9557 55.5647 51.8844 58.5674 54.4562C58.9941 54.6884 59.4131 54.9264 59.8282 55.1701C59.7506 54.8477 59.6692 54.5252 59.5644 54.2105C59.1726 53.0187 59.0562 51.8154 59.2967 50.5756C59.4791 49.6409 59.8534 48.8425 60.6274 48.2342C61.2966 47.7102 61.7543 47.0385 61.9968 46.2056C62.2257 45.4168 62.7669 44.8737 63.6126 44.7528C64.0975 44.6837 64.6096 44.6721 65.0945 44.7393C66.6715 44.9543 68.2446 45.0003 69.8294 44.8641C71.6178 44.7086 72.6225 42.3211 71.6061 41.0583C71.2977 40.6745 71.3734 40.4576 71.8156 40.2196C71.8525 40.2004 71.8874 40.1793 71.9242 40.1621C72.2404 40.02 72.4169 39.8032 72.3975 39.4347C72.3762 39.0413 72.3161 38.6843 71.9242 38.4751C71.8137 38.4156 71.7128 38.3408 71.6081 38.2736C71.707 38.216 71.7865 38.2102 71.866 38.2026C72.6846 38.1335 73.0842 37.5999 72.9154 36.8016C72.8786 36.625 72.8184 36.4504 72.8068 36.2719C72.7661 35.5541 73.0318 35.0877 73.6583 34.9304C73.9221 34.8632 74.1782 34.7557 74.4342 34.6578C74.9133 34.4717 75.1732 33.9439 75.0025 33.4641C74.8862 33.1398 74.7096 32.825 74.504 32.5467C73.9299 31.7656 73.3189 31.0114 72.7409 30.2322C72.4033 29.7773 72.124 29.2803 71.7788 28.8293C71.515 28.4838 71.416 28.1211 71.4665 27.7027C71.5285 27.1826 71.7438 26.7297 72.0833 26.3305C72.252 26.1328 72.3316 25.9236 72.2307 25.653C71.7419 24.348 71.2783 23.0314 70.7837 21.7283C70.5276 21.0527 70.2309 20.3944 69.9341 19.7342C69.8604 19.5711 69.872 19.4886 70 19.3715C70.3977 19.0126 70.8031 18.6595 71.1697 18.2699C71.61 17.8016 71.7749 17.222 71.5964 16.604C71.1697 15.132 70.3434 13.9594 68.9157 13.2685C67.9575 12.8041 66.9702 12.3991 66.0993 11.7735C66.076 11.7581 66.0392 11.7619 65.9752 11.7523C65.9907 11.8963 66.0062 12.021 66.0178 12.1285C65.4999 12.0172 64.9956 11.8809 64.4816 11.8022C63.2964 11.6238 62.2044 11.309 61.252 10.4991C60.414 9.78518 59.1901 9.66427 58.2008 9.99629C59.0232 10.0846 59.8418 10.1863 60.5401 10.8292C60.3597 10.8196 60.2472 10.835 60.1483 10.8062C59.6323 10.6584 59.0931 10.5567 58.6159 10.3302C58.1833 10.1268 57.7779 10.0615 57.3027 10.0711C56.6704 10.0827 56.0342 9.97134 55.3999 9.90993C54.7792 9.84851 54.1759 9.8677 53.5979 10.0155C54.9227 9.05973 56.3251 8.2172 57.778 7.51286C69.5617 0.839852 85.6962 2.91833 95.0824 12.0345C96.3801 13.2148 97.5303 14.4603 98.537 15.7538C96.3471 15.2414 93.839 15.3067 92.4502 16.0206C92.5608 16.1358 92.7004 16.2835 92.8614 16.4505C92.6713 16.3066 92.4812 16.1646 92.2931 16.0206C92.5278 16.3143 92.7625 16.6098 92.9991 16.9034C93.8934 18.0108 94.743 19.147 95.3889 20.4251C95.899 21.4327 96.2559 22.4864 96.3083 23.6225C96.3665 24.8623 96.0581 26.0081 95.4005 27.0387C94.9874 27.6874 94.5082 28.2938 94.0485 28.9099C93.327 29.8771 92.5744 30.8195 91.8799 31.8059C91.203 32.7674 90.689 33.8172 90.462 34.9937C90.301 35.8228 90.3282 36.6499 90.5066 37.479C90.8441 39.0528 91.6782 40.2791 93.0011 41.1869C93.6897 41.659 94.4248 41.9968 95.2279 42.1945C95.8408 42.3461 96.3975 42.6359 96.9271 42.9794C96.9542 42.9967 96.9775 43.0197 96.9969 43.0485C96.7195 42.8988 96.4538 42.7223 96.1628 42.609C95.7089 42.4325 95.2434 42.277 94.774 42.1503C93.6199 41.8394 92.6675 41.1907 91.8159 40.3693C91.1622 39.7379 90.7607 38.9587 90.4659 38.1028C89.8355 36.2776 90.0663 34.5427 90.8829 32.8576C91.4823 31.6217 92.3008 30.5373 93.1116 29.4453C93.7091 28.6412 94.3181 27.8409 94.871 27.0041C95.6022 25.8987 95.9068 24.6608 95.738 23.3212C95.6216 22.4019 95.3035 21.5421 94.8593 20.7303C94.708 20.4539 94.547 20.1833 94.3647 19.9146C94.3763 20.0586 94.3938 20.2044 94.3996 20.3484C94.4326 21.1333 94.0912 21.7743 93.6393 22.3654C93.294 22.8165 92.8731 23.1811 92.3474 23.4095C91.8916 23.6072 91.4222 23.682 90.9314 23.5093C91.042 23.5189 91.1525 23.5342 91.2631 23.5361C91.8567 23.5361 92.359 23.3039 92.7994 22.922C93.3464 22.4461 93.7207 21.8549 93.9263 21.1525C94.0815 20.6228 93.9787 20.1085 93.8138 19.6018C93.7188 19.3082 93.5888 19.0261 93.4744 18.7382C93.2882 18.2757 92.9468 17.9225 92.6364 17.5502C92.2853 17.1261 91.9187 16.7173 91.5657 16.2951C91.5036 16.2202 91.4493 16.2183 91.3775 16.2528C90.7258 16.558 90.0566 16.8324 89.4262 17.176C88.307 17.7863 87.3313 18.5827 86.5166 19.5749C85.4207 20.9126 84.769 22.4556 84.478 24.1676C84.3093 25.1675 84.2646 26.175 84.317 27.1903C84.319 27.2344 84.317 27.2786 84.317 27.3477C83.5858 26.9216 82.9437 26.4264 82.4646 25.7336C82.7148 26.2422 83.0562 26.6798 83.4849 27.0694C83.0989 26.9657 82.4277 26.4898 81.8051 25.8833C81.7935 25.8948 81.7799 25.9063 81.7682 25.9179C81.9739 26.1251 82.162 26.3574 82.389 26.5339C82.8079 26.8583 83.2502 27.1538 83.6866 27.457C84.3849 27.9388 84.4877 28.3303 84.1095 29.0845C83.772 29.7601 83.2405 30.2687 82.6877 30.7542C82.1232 31.2513 81.5491 31.7388 80.9807 32.2339C80.9419 32.2684 80.8799 32.3299 80.8469 32.3702C80.5385 32.7636 80.5462 33.1033 80.9128 33.4315C81.1592 33.6522 81.4385 33.8326 81.7023 34.0341C81.8982 34.1838 82.1019 34.322 82.2803 34.4889C82.7148 34.8958 82.7827 35.4543 82.4627 35.9494C82.3463 36.1298 82.2027 36.293 82.0728 36.4619C81.7857 36.8323 81.7993 37.0971 82.1523 37.4157C82.3502 37.5942 82.5732 37.7439 82.7885 37.9089C82.6624 37.9857 82.5286 38.0548 82.4083 38.1412C82.0902 38.3734 82.0398 38.6382 82.2687 38.9626C82.4142 39.1679 82.579 39.3598 82.7478 39.546C83.1299 39.9625 83.2075 40.425 83.0135 40.9451C82.9165 41.2061 82.8196 41.469 82.7459 41.7377C82.6392 42.1273 82.7245 42.4977 82.9224 42.8451C83.5023 43.868 84.4101 44.2653 85.5274 44.2614C86.2664 44.2576 86.9841 44.106 87.7076 43.9812C88.3846 43.8642 89.0654 43.7394 89.7501 43.6972C90.8247 43.63 91.7558 44.058 92.5744 44.747C93.261 45.3247 93.7188 46.0712 94.0156 46.9099C94.2328 47.526 94.4248 48.1536 94.5858 48.7869C94.774 49.5296 94.7022 50.5583 94.8108 51.4737C94.836 51.681 94.7488 51.7616 94.7177 51.7923L94.7061 51.8019C88.8404 57.3426 81.6402 61.0927 73.3228 61.0927C68.9332 61.0927 64.146 61.0428 60.7127 58.7302C60.5459 58.617 59.8049 58.141 59.6692 58.0508C59.0194 57.6171 59.1687 58.3713 59.1765 58.9067C59.1765 59.0296 59.2599 59.1946 59.3569 59.2714C63.3973 62.4745 68.6558 63.056 73.3208 63.056C90.3631 63.3823 105.669 49.8002 106.311 33.8537C108.462 16.0705 92.7179 -0.257922 73.6428 0.00308734C61.5643 -0.115902 50.0055 6.54368 44.5045 16.5849C43.1487 18.6844 42.0392 20.9299 41.3292 23.2464C38.2567 34.5388 41.659 47.1632 50.5332 55.3927C50.6631 55.5136 50.6961 55.6998 50.6146 55.8552C49.0318 59.0142 42.8868 64.4551 39.0152 67.8521C38.2315 68.5315 38.8542 69.754 39.9113 69.6081C46.1746 68.7464 64.5999 67.3397 73.9667 66.3417C80.9167 65.6009 86.8677 63.9331 91.8508 61.2961C98.6592 57.6919 103.664 52.276 106.944 44.937C107.384 43.9524 106.286 42.1407 106.015 42.9506L106.022 42.9468ZM70.0602 16.6635C69.8061 16.1569 69.9302 15.5562 69.4589 15.1416C69.486 15.3681 69.5093 15.5543 69.5306 15.7404C69.2571 15.0169 68.8556 14.3759 68.297 13.7656C69.5869 14.1129 70.196 15.1627 70.0582 16.6635H70.0602ZM96.3995 30.4951C95.738 31.3204 94.3298 32.5755 93.5287 33.5044C92.7276 34.4314 92.65 35.7172 92.8925 36.982C92.9623 37.3428 93.1349 37.7401 93.356 38.1354C93.131 37.8149 92.9351 37.4694 92.7703 37.0952C92.2582 35.9283 92.3493 34.7979 92.9409 33.7002C93.4239 32.8001 94.1067 32.0612 94.7759 31.3069C95.4587 30.5373 96.155 29.7754 96.7874 28.9655C97.7204 27.768 98.0812 26.3708 98.0366 24.8585C98.3236 25.9601 98.4808 27.0847 98.2092 27.7238C97.7805 28.7333 97.0764 29.6526 96.3995 30.497V30.4951ZM54.8005 10.7908C54.5503 11.1593 52.3235 11.8042 51.6097 11.7351C52.5291 10.9828 53.5843 10.6296 54.8005 10.7908ZM50.5855 12.5104C50.5273 12.5738 50.4672 12.6313 50.4032 12.6851C50.4633 12.6275 50.5234 12.5699 50.5855 12.5104ZM43.1584 25.6031C43.2728 26.9792 43.6666 28.2996 44.1341 29.5969C45.0166 32.0439 46.2154 34.3412 47.5305 36.5828C47.8137 37.0645 47.9514 37.5808 47.9902 38.1239C48.027 38.6382 48.029 39.1564 48.0212 39.6727C48.0173 39.9625 48.0212 40.2734 47.9165 40.5344C47.4296 41.7607 46.9486 42.9909 46.388 44.1866C46.0291 44.9524 45.6858 45.5396 45.3367 46.0981C42.1846 39.7379 41.2575 32.5909 43.1623 25.6031H43.1584Z" fill="url(#paint10_linear_121_92)"/>
<path d="M18.5045 61.8355C18.7217 61.872 19.0476 61.872 19.1931 62.014C19.0844 62.085 18.9021 62.085 18.7217 62.1215C18.8303 62.2654 19.1562 62.4804 19.1562 62.5514L19.1194 62.6589L19.2648 62.6953C19.1194 62.8738 16.4387 63.5551 15.8936 63.7355C16.0391 66.2458 11.3625 71.1225 7.73909 71.1225C7.33951 71.1225 6.75954 70.9785 6.54229 70.6197C6.3619 70.3337 5.20195 68.7542 5.20195 68.5047C6.57915 66.1729 10.7844 63.772 13.3216 62.9103C13.2498 62.5879 12.8134 62.085 12.5961 61.9411C9.80488 60.1486 4.11572 60.0757 4.11572 55.9168C4.11572 52.5102 9.87859 46.3784 14.6619 46.3784C14.916 46.3784 15.1701 46.3784 15.4223 46.4149C17.4512 47.0252 19.1194 48.7102 19.1194 51.257C19.1194 51.6159 18.6112 52.1532 18.1767 52.1532C16.5085 52.1532 18.2853 49.428 16.0391 48.5317C15.785 48.4243 15.496 48.3878 15.205 48.3878C11.9075 48.3878 6.17957 54.1262 6.3619 56.7075C6.47052 58.0701 14.336 58.8589 15.6395 62.3019C16.7626 62.0505 17.234 61.6916 18.4308 61.6206L18.5025 61.8355H18.5045ZM7.41322 68.8271C9.47901 68.8271 12.342 66.2094 12.9957 64.8832C13.0326 64.8122 13.1043 64.7047 13.1043 64.5973C11.7989 64.8832 7.19597 68.0038 6.97873 68.7561C7.1242 68.7926 7.3046 68.8271 7.41322 68.8271Z" fill="#F5F0EB"/>
<path d="M25.5361 69.6158C24.8107 69.5448 23.868 69.2205 23.5789 68.6831C22.8903 67.1765 23.7962 64.2728 24.0871 63.3766C23.5072 64.2728 20.8983 68.3607 19.556 68.3607C19.3387 68.3607 18.687 68.3242 18.5415 68.2532C17.562 68.2897 17.2729 67.0345 17.2729 66.2457C17.2729 63.628 18.9042 61.0102 19.5191 58.4999L19.5909 58.1775C19.5909 58.141 19.5909 58.07 19.554 58.0335C19.5909 57.9971 19.6627 57.9971 19.7713 57.9971H20.0254C20.3881 58.0335 21.0399 58.0681 21.1853 58.1756C21.5481 58.283 21.7653 58.7129 21.7653 59.0718C21.7653 60.9373 19.8799 64.0559 19.8799 66.3513C21.3289 65.0251 24.0115 60.6129 25.4624 59.0354V58.9279L25.5342 58.8914C25.7514 58.9624 25.8969 58.9624 26.0773 58.9624C26.2228 58.9624 26.4031 58.9624 26.6204 59.0334C26.9831 59.1409 27.2372 59.4288 27.1286 59.9297C26.5855 61.7951 25.0997 66.9578 25.4973 68.1784H25.6059C25.6777 68.1784 25.7514 68.1073 25.9318 68.0344C27.3808 66.2419 28.8685 63.5877 30.4979 61.0064V61.1848C30.5347 61.2213 30.4979 61.2558 30.4979 61.2923C30.4979 61.4362 30.6433 61.4363 30.5347 61.5783C30.5347 61.6857 30.5347 61.8297 30.4979 61.9372V62.0082C30.5347 61.9007 30.6065 61.8642 30.6065 61.7932L30.6433 61.9007C30.6065 61.9007 30.6065 62.0082 30.7151 62.0082C30.7151 62.0792 30.6783 62.1867 30.752 62.1867C30.752 62.1867 30.7888 62.1867 30.8237 62.1502V62.2212L30.6783 62.3651V62.4361C30.8237 62.5436 30.6783 62.795 30.5328 62.939C30.6046 63.1539 30.2787 63.6203 30.1701 63.8352C30.1701 63.8717 30.2069 64.0137 30.0614 64.0502C30.0983 64.1941 29.9897 64.3016 29.881 64.4091C29.5901 65.4493 27.5612 68.3895 26.5098 69.2147C26.1103 69.4297 26.1103 69.3932 25.5303 69.6101L25.5361 69.6158Z" fill="#F5F0EB"/>
<path d="M31.045 68.4701C29.5961 68.4701 28.762 66.9635 28.6883 65.7083C28.5079 63.413 31.3709 57.8186 33.8712 57.8186C34.6315 57.8186 35.8283 58.1775 36.2997 58.8223C36.6993 58.2849 37.1338 57.6382 37.64 56.9933L37.5683 56.8494C37.64 56.7419 37.7487 56.6709 37.8573 56.6709C38.4741 56.6709 39.8144 56.8858 39.8144 57.6382C39.8144 58.5709 39.3431 59.5036 39.089 60.3999C38.4004 62.6952 37.7487 64.8466 37.7487 67.2495C37.7487 67.3934 37.8573 68.1822 37.9659 68.1822C39.0541 68.1822 44.0954 63.0733 44.1322 63.1098C44.4096 62.9735 44.4659 63.2345 44.3495 63.5051C44.3495 63.5051 39.9231 69.4738 38.0028 69.4738C37.8224 69.4738 37.1687 69.3299 37.0969 69.2588C35.8652 68.7925 35.4288 67.5009 35.4288 66.3186C35.4288 64.956 35.7178 63.5569 36.0805 62.2672H36.0437C35.1378 63.6663 32.3834 68.472 31.0412 68.472L31.045 68.4701ZM35.4288 59.97C35.357 59.7915 34.9574 59.5036 34.7033 59.5036C34.4861 59.5036 34.1602 59.7186 34.0516 59.8625C32.5658 61.2251 30.9345 64.4532 30.9345 66.4242L31.0062 66.6756C32.4203 64.5952 34.0516 62.0504 35.4288 59.97Z" fill="#F5F0EB"/>
<defs>
<linearGradient id="paint0_linear_121_92" x1="12.4808" y1="74.1821" x2="-0.157018" y2="75.3328" gradientUnits="userSpaceOnUse">
<stop offset="0.418269" stop-color="#BDA77A"/>
<stop offset="0.990385" stop-color="#E8D8B9"/>
</linearGradient>
<linearGradient id="paint1_linear_121_92" x1="27.1719" y1="74.1841" x2="12.1968" y2="75.8052" gradientUnits="userSpaceOnUse">
<stop offset="0.418269" stop-color="#BDA77A"/>
<stop offset="0.990385" stop-color="#E8D8B9"/>
</linearGradient>
<linearGradient id="paint2_linear_121_92" x1="41.2002" y1="74.3597" x2="28.6301" y2="75.5635" gradientUnits="userSpaceOnUse">
<stop offset="0.418269" stop-color="#BDA77A"/>
<stop offset="0.990385" stop-color="#E8D8B9"/>
</linearGradient>
<linearGradient id="paint3_linear_121_92" x1="52.2841" y1="74.3617" x2="43.1276" y2="74.9977" gradientUnits="userSpaceOnUse">
<stop offset="0.418269" stop-color="#BDA77A"/>
<stop offset="0.990385" stop-color="#E8D8B9"/>
</linearGradient>
<linearGradient id="paint4_linear_121_92" x1="58.0439" y1="74.3597" x2="53.4307" y2="74.5206" gradientUnits="userSpaceOnUse">
<stop offset="0.418269" stop-color="#BDA77A"/>
<stop offset="0.990385" stop-color="#E8D8B9"/>
</linearGradient>
<linearGradient id="paint5_linear_121_92" x1="72.5057" y1="74.3597" x2="59.3927" y2="75.6708" gradientUnits="userSpaceOnUse">
<stop offset="0.418269" stop-color="#BDA77A"/>
<stop offset="0.990385" stop-color="#E8D8B9"/>
</linearGradient>
<linearGradient id="paint6_linear_121_92" x1="83.473" y1="74.3597" x2="73.8227" y2="75.0666" gradientUnits="userSpaceOnUse">
<stop offset="0.418269" stop-color="#BDA77A"/>
<stop offset="0.990385" stop-color="#E8D8B9"/>
</linearGradient>
<linearGradient id="paint7_linear_121_92" x1="97.0908" y1="74.3597" x2="84.5207" y2="75.5635" gradientUnits="userSpaceOnUse">
<stop offset="0.418269" stop-color="#BDA77A"/>
<stop offset="0.990385" stop-color="#E8D8B9"/>
</linearGradient>
<linearGradient id="paint8_linear_121_92" x1="109.015" y1="74.3597" x2="97.8163" y2="75.3134" gradientUnits="userSpaceOnUse">
<stop offset="0.418269" stop-color="#BDA77A"/>
<stop offset="0.990385" stop-color="#E8D8B9"/>
</linearGradient>
<linearGradient id="paint9_linear_121_92" x1="119.296" y1="74.3597" x2="109.646" y2="75.0666" gradientUnits="userSpaceOnUse">
<stop offset="0.418269" stop-color="#BDA77A"/>
<stop offset="0.990385" stop-color="#E8D8B9"/>
</linearGradient>
<linearGradient id="paint10_linear_121_92" x1="102.331" y1="19.3754" x2="37.9708" y2="25.8102" gradientUnits="userSpaceOnUse">
<stop offset="0.418269" stop-color="#BDA77A"/>
<stop offset="0.990385" stop-color="#E8D8B9"/>
</linearGradient>
</defs>
</svg>
