<svg width="69" height="78" viewBox="0 0 69 78" fill="none" xmlns="http://www.w3.org/2000/svg">
<path d="M34.5005 43.9707C39.1576 43.9708 42.9331 47.7498 42.9331 52.4121C42.933 57.0743 39.1575 60.8534 34.5005 60.8535C29.8434 60.8535 26.067 57.0744 26.0669 52.4121C26.0669 47.7498 29.8433 43.9707 34.5005 43.9707Z" fill="url(#paint0_linear_76_421)" stroke="url(#paint1_linear_76_421)"/>
<path d="M1 45.7059C1 37.2743 1 33.063 3.61747 30.4433C6.23493 27.8235 10.4425 27.8235 18.8667 27.8235H50.1333C58.5575 27.8235 62.7651 27.8235 65.3825 30.4433C68 33.063 68 37.2743 68 45.7059V50.1764C68 62.8193 68 69.1452 64.0738 73.0703C60.1521 77 53.8317 77 41.2 77H27.8C15.1683 77 8.84793 77 4.9262 73.0703C1 69.1452 1 62.8193 1 50.1764V45.7059Z" stroke="url(#paint2_linear_76_421)"/>
<path d="M54.6001 27.8236V21.1177C54.6001 15.7821 52.4825 10.6651 48.713 6.89233C44.9435 3.11953 39.831 1 34.5001 1C29.1693 1 24.0568 3.11953 20.2873 6.89233C16.5178 10.6651 14.4001 15.7821 14.4001 21.1177V27.8236" stroke="url(#paint3_linear_76_421)" stroke-linecap="round"/>
<defs>
<linearGradient id="paint0_linear_76_421" x1="42.2014" y1="48.4474" x2="25.3919" y2="50.1569" gradientUnits="userSpaceOnUse">
<stop offset="0.418269" stop-color="#BDA77A"/>
<stop offset="0.990385" stop-color="#E8D8B9"/>
</linearGradient>
<linearGradient id="paint1_linear_76_421" x1="42.2014" y1="48.4474" x2="25.3919" y2="50.1569" gradientUnits="userSpaceOnUse">
<stop offset="0.418269" stop-color="#BDA77A"/>
<stop offset="0.990385" stop-color="#E8D8B9"/>
</linearGradient>
<linearGradient id="paint2_linear_76_421" x1="63.3793" y1="41.5094" x2="0.893381" y2="50.175" gradientUnits="userSpaceOnUse">
<stop offset="0.418269" stop-color="#BDA77A"/>
<stop offset="0.990385" stop-color="#E8D8B9"/>
</linearGradient>
<linearGradient id="paint3_linear_76_421" x1="51.8277" y1="8.46504" x2="14.4842" y2="14.1618" gradientUnits="userSpaceOnUse">
<stop offset="0.418269" stop-color="#BDA77A"/>
<stop offset="0.990385" stop-color="#E8D8B9"/>
</linearGradient>
</defs>
</svg>
