<svg width="85" height="76" viewBox="0 0 85 76" fill="none" xmlns="http://www.w3.org/2000/svg">
<path d="M52.535 49.2215C52.3494 49.1973 52.1606 49.2181 51.9846 49.2822C51.8087 49.3462 51.6508 49.4517 51.5244 49.5897C51.3966 49.7262 51.3028 49.8909 51.2507 50.0704C51.1987 50.25 51.1898 50.4392 51.2248 50.6229C51.8811 54.0667 54.0903 58.7932 60.8723 61.7359C61.6761 62.0827 62.9174 62.3535 64.4917 62.6931C70.3844 63.9662 80.2388 66.099 82.6596 75.1196C82.7002 75.2704 82.7702 75.4118 82.8655 75.5356C82.9608 75.6594 83.0795 75.7632 83.215 75.8412C83.3505 75.9192 83.5 75.9697 83.655 75.99C83.8101 76.0102 83.9676 75.9998 84.1185 75.9592C84.2695 75.9187 84.4111 75.8488 84.535 75.7536C84.659 75.6585 84.7629 75.5398 84.841 75.4045C84.9191 75.2692 84.9697 75.1199 84.99 74.9651C85.0102 74.8102 84.9998 74.6529 84.9592 74.5021C82.1603 64.0825 70.9955 61.6671 64.9958 60.3703C63.607 60.0686 62.4062 59.8097 61.8188 59.5532C57.7429 57.7862 55.1104 55.164 53.969 51.7486C65.293 52.5894 70.42 48.0839 70.6459 47.8796C70.7852 47.7536 70.8926 47.5965 70.9594 47.421C71.0261 47.2456 71.0502 47.0569 71.0298 46.8703C71.0094 46.6837 70.945 46.5047 70.8419 46.3478C70.7388 46.1909 70.5999 46.0606 70.4367 45.9677C63.9019 42.2388 63.9019 29.3538 63.9019 24.5015C63.9019 10.9326 54.7513 0.175757 43.0206 0.0071253L42.6853 0C30.7834 0.0665028 21.0978 10.8352 21.0978 24.0075C21.0978 28.8598 21.0978 41.7471 14.563 45.4736C14.3946 45.5714 14.2526 45.7087 14.1493 45.8737C14.0461 46.0387 13.9848 46.2264 13.9708 46.4205C13.9567 46.6145 13.9903 46.8091 14.0687 46.9872C14.147 47.1653 14.2677 47.3217 14.4203 47.4426C14.7485 47.6967 22.0014 53.2402 30.9261 51.5563C29.7323 54.8292 27.1355 57.3468 23.1785 59.064C22.6054 59.3133 21.464 59.5865 20.1418 59.9C14.1017 61.3345 2.85609 64.0065 0.0405265 74.4997C8.56909e-05 74.6505 -0.0102195 74.8078 0.0101992 74.9626C0.0306179 75.1174 0.0813607 75.2666 0.15953 75.4018C0.317401 75.6749 0.577404 75.8741 0.882341 75.9557C1.18728 76.0372 1.51217 75.9945 1.78555 75.8368C2.05892 75.6791 2.25839 75.4194 2.34006 75.1149C4.78703 65.985 14.7461 63.6218 20.6935 62.2062C22.1845 61.8523 23.3616 61.5721 24.1274 61.2419C30.9094 58.2992 33.1162 53.5727 33.7749 50.1288C33.8133 49.9271 33.7987 49.7188 33.7324 49.5244C33.6661 49.33 33.5505 49.1561 33.3968 49.0197C33.2434 48.8831 33.0572 48.7885 32.8563 48.7452C32.6555 48.7019 32.4468 48.7114 32.2506 48.7727C25.8134 50.7962 19.866 48.0126 17.2668 46.4688C23.4758 41.2768 23.4758 29.3277 23.4758 24.0075C23.4758 12.1391 32.0984 2.43448 42.7852 2.37035L43.0373 2.3846C53.5766 2.53423 61.5239 12.0418 61.5239 24.5015C61.5239 29.8241 61.5239 41.7994 67.759 46.9913C65.6117 48.2169 60.7154 50.2001 52.535 49.2215Z" fill="url(#paint0_linear_76_417)"/>
<defs>
<linearGradient id="paint0_linear_76_417" x1="79.1379" y1="21.1509" x2="-0.626127" y2="30.2315" gradientUnits="userSpaceOnUse">
<stop offset="0.418269" stop-color="#BDA77A"/>
<stop offset="0.990385" stop-color="#E8D8B9"/>
</linearGradient>
</defs>
</svg>
